<?xml version="1.0" encoding="UTF-8"?>
<svg id="Layer_1" data-name="Layer 1" xmlns="http://www.w3.org/2000/svg" viewBox="0 0 750.83 770.73">
  <defs>
    <style>
      .cls-1 {
        fill: #2e3a97;
      }

      .cls-2 {
        fill: #57c3bc;
      }
    </style>
  </defs>
  <path class="cls-1" d="M720.99,650.16c-8.2-9.81-19.95-18.33-30.32-25.86l-4.52-3.29c-12.15-8.93-26.2-18.49-41.06-28.6-45.7-31.09-102.57-69.78-136.76-113.6-18.01-23.07-28.01-45-30.57-67.02-2.91-25.01,3.87-49.54,20.75-75.02,13.49-20.37,33.04-36.72,51.95-52.54,16.11-13.47,32.76-27.41,45.85-43.91,23.73-29.9,17.71-61.52,1.21-79.59-18.43-20.18-48.01-23.33-71.92-7.66-17.95,11.76-36.13,35.37-53.71,58.21-9.61,12.48-18.69,24.27-26.78,32.85-31.04,32.88-63.55,49.02-96.41,48.16-37.46-1.05-76.79-24.74-113.72-68.52-25.12-29.77-30.04-45.87-39.7-82.6-13.81-52.55-55.72-85.54-104.32-81.99-41.48,3-74.62,28.75-86.47,67.2-12.33,39.99,1.33,82.97,34.79,109.49,18.28,14.5,38.27,18.31,57.6,22.01,12,2.29,23.34,4.46,34.23,9.07,51.54,21.84,109.34,85.94,109.88,143,.41,43.1-38.69,108.81-102.57,139.82-10.26,4.99-20.85,7.96-32.05,11.1-19.01,5.34-38.67,10.85-56.5,26.63-45.69,40.45-44.01,95.74-22.08,132.6,21.53,36.17,68.36,63.52,124.45,43.12,51.88-18.88,60.36-57.38,68.56-94.62,3.7-16.81,7.53-34.19,15.54-49.61,24.93-47.95,64.69-81.68,106.36-90.22,34.08-6.99,68.6,2.83,99.83,28.43,40.12,32.88,73.26,74.24,105.31,114.24,17.81,22.22,36.22,45.21,55.67,66.55,17.13,18.8,41.66,32.74,66.75,32.74,15.24,0,30.69-5.15,44.82-17.47,34.59-30.2,28.88-75.66,5.94-103.1Z"/>
  <path class="cls-2" d="M749.99,205.97l-22.53-137.95c-3.76-22.95-21.7-40.89-44.65-44.63L544.88.85c-16.61-2.73-33.27,1.2-46.92,11.02-13.66,9.82-22.67,24.37-25.38,40.97l-6.68,40.91,25.9,4.23c20.99-25.61,52.86-41.97,88.56-41.97,63.22,0,114.46,51.25,114.46,114.46,0,35.7-16.35,67.57-41.97,88.56l4.23,25.91,40.91-6.68c16.6-2.72,31.15-11.73,40.97-25.38,9.82-13.65,13.73-30.31,11.02-46.91Z"/>
</svg>